<svg width="24" height="24" viewBox="0 0 24 24" fill="none" xmlns="http://www.w3.org/2000/svg">
<mask id="mask0_202_1587" style="mask-type:alpha" maskUnits="userSpaceOnUse" x="0" y="0" width="24" height="24">
<rect width="24" height="24" fill="#D9D9D9"/>
</mask>
<g mask="url(#mask0_202_1587)">
<path d="M6 21.0002C5.25 21.0002 4.50833 20.8169 3.775 20.4502C3.04167 20.0835 2.45 19.6002 2 19.0002C2.43333 19.0002 2.875 18.8294 3.325 18.4877C3.775 18.146 4 17.6502 4 17.0002C4 16.1669 4.29167 15.4585 4.875 14.8752C5.45833 14.2919 6.16667 14.0002 7 14.0002C7.83333 14.0002 8.54167 14.2919 9.125 14.8752C9.70833 15.4585 10 16.1669 10 17.0002C10 18.1002 9.60833 19.0419 8.825 19.8252C8.04167 20.6085 7.1 21.0002 6 21.0002ZM6 19.0002C6.55 19.0002 7.02083 18.8044 7.4125 18.4127C7.80417 18.021 8 17.5502 8 17.0002C8 16.7169 7.90417 16.4794 7.7125 16.2877C7.52083 16.096 7.28333 16.0002 7 16.0002C6.71667 16.0002 6.47917 16.096 6.2875 16.2877C6.09583 16.4794 6 16.7169 6 17.0002C6 17.3835 5.95417 17.7335 5.8625 18.0502C5.77083 18.3669 5.65 18.6669 5.5 18.9502C5.58333 18.9835 5.66667 19.0002 5.75 19.0002H6ZM11.75 15.0002L9 12.2502L17.95 3.30021C18.1333 3.11687 18.3625 3.02104 18.6375 3.01271C18.9125 3.00437 19.15 3.10021 19.35 3.30021L20.7 4.65021C20.9 4.85021 21 5.08354 21 5.35021C21 5.61687 20.9 5.85021 20.7 6.05021L11.75 15.0002Z" fill="white"/>
</g>
</svg>
